<svg width="16" height="8" viewBox="0 0 16 8" fill="none" xmlns="http://www.w3.org/2000/svg">
<path d="M1.611 7V1.393L0.423 1.762L0.252 1.186L1.791 0.655H2.313V7H1.611ZM8.36459 6.163C7.87259 6.793 7.23059 7.108 6.43859 7.108C5.64659 7.108 5.00459 6.796 4.51259 6.172C4.02659 5.542 3.78359 4.768 3.78359 3.85C3.78359 2.944 4.02959 2.176 4.52159 1.546C5.01959 0.91 5.66459 0.592 6.45659 0.592C7.24859 0.592 7.88759 0.907 8.37359 1.537C8.85959 2.161 9.10259 2.932 9.10259 3.85C9.10259 4.756 8.85659 5.527 8.36459 6.163ZM5.06159 5.695C5.42159 6.205 5.88659 6.46 6.45659 6.46C7.02659 6.46 7.48559 6.208 7.83359 5.704C8.18759 5.194 8.36459 4.576 8.36459 3.85C8.36459 3.136 8.18459 2.524 7.82459 2.014C7.47059 1.498 7.00859 1.24 6.43859 1.24C5.86859 1.24 5.40659 1.495 5.05259 2.005C4.69859 2.509 4.52159 3.124 4.52159 3.85C4.52159 4.564 4.70159 5.179 5.06159 5.695ZM14.7982 6.163C14.3062 6.793 13.6642 7.108 12.8722 7.108C12.0802 7.108 11.4382 6.796 10.9462 6.172C10.4602 5.542 10.2172 4.768 10.2172 3.85C10.2172 2.944 10.4632 2.176 10.9552 1.546C11.4532 0.91 12.0982 0.592 12.8902 0.592C13.6822 0.592 14.3212 0.907 14.8072 1.537C15.2932 2.161 15.5362 2.932 15.5362 3.85C15.5362 4.756 15.2902 5.527 14.7982 6.163ZM11.4952 5.695C11.8552 6.205 12.3202 6.46 12.8902 6.46C13.4602 6.46 13.9192 6.208 14.2672 5.704C14.6212 5.194 14.7982 4.576 14.7982 3.85C14.7982 3.136 14.6182 2.524 14.2582 2.014C13.9042 1.498 13.4422 1.24 12.8722 1.24C12.3022 1.24 11.8402 1.495 11.4862 2.005C11.1322 2.509 10.9552 3.124 10.9552 3.85C10.9552 4.564 11.1352 5.179 11.4952 5.695Z" fill="#878E9C"/>
</svg>
