<svg width="18" height="8" viewBox="0 0 18 8" fill="none" xmlns="http://www.w3.org/2000/svg">
<path d="M0.432 7V6.451L2.718 4.435C3.21 4.003 3.552 3.643 3.744 3.355C3.936 3.067 4.032 2.767 4.032 2.455C4.032 2.095 3.909 1.804 3.663 1.582C3.417 1.36 3.117 1.249 2.763 1.249C2.421 1.249 2.118 1.336 1.854 1.51C1.596 1.684 1.335 1.957 1.071 2.329L0.549 1.951C0.855 1.495 1.179 1.159 1.521 0.943C1.863 0.721 2.295 0.61 2.817 0.61C3.381 0.61 3.846 0.781 4.212 1.123C4.584 1.459 4.77 1.888 4.77 2.41C4.77 2.842 4.653 3.226 4.419 3.562C4.185 3.898 3.771 4.33 3.177 4.858L1.494 6.352H4.833V7H0.432ZM10.5267 6.163C10.0347 6.793 9.3927 7.108 8.6007 7.108C7.8087 7.108 7.1667 6.796 6.6747 6.172C6.1887 5.542 5.9457 4.768 5.9457 3.85C5.9457 2.944 6.1917 2.176 6.6837 1.546C7.1817 0.91 7.8267 0.592 8.6187 0.592C9.4107 0.592 10.0497 0.907 10.5357 1.537C11.0217 2.161 11.2647 2.932 11.2647 3.85C11.2647 4.756 11.0187 5.527 10.5267 6.163ZM7.2237 5.695C7.5837 6.205 8.0487 6.46 8.6187 6.46C9.1887 6.46 9.6477 6.208 9.9957 5.704C10.3497 5.194 10.5267 4.576 10.5267 3.85C10.5267 3.136 10.3467 2.524 9.9867 2.014C9.6327 1.498 9.1707 1.24 8.6007 1.24C8.0307 1.24 7.5687 1.495 7.2147 2.005C6.8607 2.509 6.6837 3.124 6.6837 3.85C6.6837 4.564 6.8637 5.179 7.2237 5.695ZM16.9603 6.163C16.4683 6.793 15.8263 7.108 15.0343 7.108C14.2423 7.108 13.6003 6.796 13.1083 6.172C12.6223 5.542 12.3793 4.768 12.3793 3.85C12.3793 2.944 12.6253 2.176 13.1173 1.546C13.6153 0.91 14.2603 0.592 15.0523 0.592C15.8443 0.592 16.4833 0.907 16.9693 1.537C17.4553 2.161 17.6983 2.932 17.6983 3.85C17.6983 4.756 17.4523 5.527 16.9603 6.163ZM13.6573 5.695C14.0173 6.205 14.4823 6.46 15.0523 6.46C15.6223 6.46 16.0813 6.208 16.4293 5.704C16.7833 5.194 16.9603 4.576 16.9603 3.85C16.9603 3.136 16.7803 2.524 16.4203 2.014C16.0663 1.498 15.6043 1.24 15.0343 1.24C14.4643 1.24 14.0023 1.495 13.6483 2.005C13.2943 2.509 13.1173 3.124 13.1173 3.85C13.1173 4.564 13.2973 5.179 13.6573 5.695Z" fill="#878E9C"/>
</svg>
