<svg width="18" height="8" viewBox="0 0 18 8" fill="none" xmlns="http://www.w3.org/2000/svg">
<path d="M2.799 7.108C1.809 7.108 1.026 6.733 0.45 5.983L0.963 5.524C1.473 6.148 2.088 6.46 2.808 6.46C3.198 6.46 3.525 6.346 3.789 6.118C4.053 5.89 4.185 5.59 4.185 5.218C4.185 4.834 4.023 4.537 3.699 4.327C3.375 4.111 2.949 4.003 2.421 4.003H2.016L1.872 3.58L3.861 1.339H0.783V0.7H4.806V1.222L2.826 3.418C3.426 3.466 3.921 3.64 4.311 3.94C4.707 4.234 4.905 4.657 4.905 5.209C4.905 5.761 4.701 6.217 4.293 6.577C3.891 6.931 3.393 7.108 2.799 7.108ZM10.6585 6.163C10.1665 6.793 9.52453 7.108 8.73253 7.108C7.94053 7.108 7.29853 6.796 6.80653 6.172C6.32053 5.542 6.07753 4.768 6.07753 3.85C6.07753 2.944 6.32353 2.176 6.81553 1.546C7.31353 0.91 7.95853 0.592 8.75053 0.592C9.54253 0.592 10.1815 0.907 10.6675 1.537C11.1535 2.161 11.3965 2.932 11.3965 3.85C11.3965 4.756 11.1505 5.527 10.6585 6.163ZM7.35553 5.695C7.71553 6.205 8.18053 6.46 8.75053 6.46C9.32053 6.46 9.77953 6.208 10.1275 5.704C10.4815 5.194 10.6585 4.576 10.6585 3.85C10.6585 3.136 10.4785 2.524 10.1185 2.014C9.76453 1.498 9.30253 1.24 8.73253 1.24C8.16253 1.24 7.70053 1.495 7.34653 2.005C6.99253 2.509 6.81553 3.124 6.81553 3.85C6.81553 4.564 6.99553 5.179 7.35553 5.695ZM17.0921 6.163C16.6001 6.793 15.9581 7.108 15.1661 7.108C14.3741 7.108 13.7321 6.796 13.2401 6.172C12.7541 5.542 12.5111 4.768 12.5111 3.85C12.5111 2.944 12.7571 2.176 13.2491 1.546C13.7471 0.91 14.3921 0.592 15.1841 0.592C15.9761 0.592 16.6151 0.907 17.1011 1.537C17.5871 2.161 17.8301 2.932 17.8301 3.85C17.8301 4.756 17.5841 5.527 17.0921 6.163ZM13.7891 5.695C14.1491 6.205 14.6141 6.46 15.1841 6.46C15.7541 6.46 16.2131 6.208 16.5611 5.704C16.9151 5.194 17.0921 4.576 17.0921 3.85C17.0921 3.136 16.9121 2.524 16.5521 2.014C16.1981 1.498 15.7361 1.24 15.1661 1.24C14.5961 1.24 14.1341 1.495 13.7801 2.005C13.4261 2.509 13.2491 3.124 13.2491 3.85C13.2491 4.564 13.4291 5.179 13.7891 5.695Z" fill="#878E9C"/>
</svg>
