<svg width="19" height="8" viewBox="0 0 19 8" fill="none" xmlns="http://www.w3.org/2000/svg">
<path d="M3.888 7V5.506H0.567L0.387 4.993L3.951 0.655H4.572V4.912H5.553V5.506H4.572V7H3.888ZM1.242 4.912H3.888V1.663L1.242 4.912ZM11.1771 6.163C10.6851 6.793 10.0431 7.108 9.25109 7.108C8.45909 7.108 7.81709 6.796 7.32509 6.172C6.83909 5.542 6.59609 4.768 6.59609 3.85C6.59609 2.944 6.84209 2.176 7.33409 1.546C7.83209 0.91 8.47709 0.592 9.26909 0.592C10.0611 0.592 10.7001 0.907 11.1861 1.537C11.6721 2.161 11.9151 2.932 11.9151 3.85C11.9151 4.756 11.6691 5.527 11.1771 6.163ZM7.87409 5.695C8.23409 6.205 8.69909 6.46 9.26909 6.46C9.83909 6.46 10.2981 6.208 10.6461 5.704C11.0001 5.194 11.1771 4.576 11.1771 3.85C11.1771 3.136 10.9971 2.524 10.6371 2.014C10.2831 1.498 9.82109 1.24 9.25109 1.24C8.68109 1.24 8.21909 1.495 7.86509 2.005C7.51109 2.509 7.33409 3.124 7.33409 3.85C7.33409 4.564 7.51409 5.179 7.87409 5.695ZM17.6107 6.163C17.1187 6.793 16.4767 7.108 15.6847 7.108C14.8927 7.108 14.2507 6.796 13.7587 6.172C13.2727 5.542 13.0297 4.768 13.0297 3.85C13.0297 2.944 13.2757 2.176 13.7677 1.546C14.2657 0.91 14.9107 0.592 15.7027 0.592C16.4947 0.592 17.1337 0.907 17.6197 1.537C18.1057 2.161 18.3487 2.932 18.3487 3.85C18.3487 4.756 18.1027 5.527 17.6107 6.163ZM14.3077 5.695C14.6677 6.205 15.1327 6.46 15.7027 6.46C16.2727 6.46 16.7317 6.208 17.0797 5.704C17.4337 5.194 17.6107 4.576 17.6107 3.85C17.6107 3.136 17.4307 2.524 17.0707 2.014C16.7167 1.498 16.2547 1.24 15.6847 1.24C15.1147 1.24 14.6527 1.495 14.2987 2.005C13.9447 2.509 13.7677 3.124 13.7677 3.85C13.7677 4.564 13.9477 5.179 14.3077 5.695Z" fill="#878E9C"/>
</svg>
